<svg xmlns="http://www.w3.org/2000/svg" version="1.1" xmlns:xlink="http://www.w3.org/1999/xlink" xmlns:svgjs="http://svgjs.dev/svgjs" width="1440" height="560" preserveAspectRatio="none" viewBox="0 0 1440 560"><g mask="url(&quot;#SvgjsMask1010&quot;)" fill="none"><rect width="1440" height="560" x="0" y="0" fill="rgba(5, 5, 5, 1)"></rect><path d="M-15.06 418.24C90.33 418.48 192.8 488.24 400.65 488.24 608.51 488.24 607.65 418.16 816.36 418.24 1025.07 418.32 1121.98 561.7 1232.07 563.78" stroke="rgba(254, 254, 254, 0.17)" stroke-width="2"></path><path d="M-239.49 447.03C-123.73 446.06-17.5 329.18 208.38 329.43 434.25 329.68 529.91 558.12 656.24 565.17" stroke="rgba(254, 254, 254, 0.17)" stroke-width="2"></path><path d="M-36.12 442.12C103.67 436.07 212.56 200.63 469.13 201.32 725.7 202.01 812.23 595.14 974.38 621.34" stroke="rgba(254, 254, 254, 0.17)" stroke-width="2"></path><path d="M-260.69 315.92C-133.41 312.99-31.76 134.11 215.99 136.72 463.75 139.33 532.28 553.12 692.68 586.71" stroke="rgba(254, 254, 254, 0.17)" stroke-width="2"></path><path d="M-167.46 408.94C10.09 406.03 248.3 183.8 506.58 184.94 764.86 186.08 714.34 573.48 843.6 621.41" stroke="rgba(254, 254, 254, 0.17)" stroke-width="2"></path></g><defs><mask id="SvgjsMask1010"><rect width="1440" height="560" fill="#ffffff"></rect></mask></defs></svg>